<svg width="301" height="184" viewBox="0 0 301 184" fill="none" xmlns="http://www.w3.org/2000/svg">
<path d="M4.14 0H28.98L48.24 75.42H48.6V0H66.24V126H45.9L22.14 34.02H21.78V126H4.14V0Z" fill="url(#paint0_linear_79_45)"/>
<path d="M90.9564 0H110.756V126H90.9564V0Z" fill="url(#paint1_linear_79_45)"/>
<path d="M135.585 0H163.845L176.445 90.18H176.805L189.405 0H217.665V126H198.945V30.6H198.585L184.185 126H167.625L153.225 30.6H152.865V126H135.585V0Z" fill="url(#paint2_linear_79_45)"/>
<path d="M271.241 127.8C261.641 127.8 254.321 125.1 249.281 119.7C244.241 114.18 241.721 106.32 241.721 96.12V0H261.521V97.56C261.521 101.88 262.361 105 264.041 106.92C265.841 108.84 268.361 109.8 271.601 109.8C274.841 109.8 277.301 108.84 278.981 106.92C280.781 105 281.681 101.88 281.681 97.56V0H300.761V96.12C300.761 106.32 298.241 114.18 293.201 119.7C288.161 125.1 280.841 127.8 271.241 127.8Z" fill="url(#paint3_linear_79_45)"/>
<path d="M13.62 183.84C10.1 183.84 7.08 183 4.56 181.32C2.08 179.64 0.56 176.86 0 172.98L3.54 172.32C3.86 174.44 4.5 176.12 5.46 177.36C6.46 178.56 7.66 179.42 9.06 179.94C10.5 180.46 12.02 180.72 13.62 180.72C16.02 180.72 17.94 180.24 19.38 179.28C20.86 178.28 21.6 176.92 21.6 175.2C21.6 173.44 20.9 172.22 19.5 171.54C18.14 170.86 16.32 170.32 14.04 169.92L11.28 169.44C9.44 169.12 7.78 168.64 6.3 168C4.82 167.32 3.64 166.42 2.76 165.3C1.92 164.18 1.5 162.78 1.5 161.1C1.5 158.58 2.48 156.6 4.44 155.16C6.44 153.72 9.08 153 12.36 153C15.68 153 18.34 153.76 20.34 155.28C22.38 156.76 23.66 158.92 24.18 161.76L20.82 162.48C20.42 160.16 19.46 158.52 17.94 157.56C16.46 156.6 14.6 156.12 12.36 156.12C10.16 156.12 8.4 156.54 7.08 157.38C5.76 158.22 5.1 159.46 5.1 161.1C5.1 162.7 5.7 163.88 6.9 164.64C8.1 165.36 9.74 165.9 11.82 166.26L14.58 166.74C16.58 167.06 18.38 167.54 19.98 168.18C21.58 168.78 22.84 169.64 23.76 170.76C24.72 171.88 25.2 173.36 25.2 175.2C25.2 177.96 24.16 180.1 22.08 181.62C20 183.1 17.18 183.84 13.62 183.84Z" fill="#0B9CCE"/>
<path d="M67.5961 183C66.0361 183 64.8561 182.6 64.0561 181.8C63.2961 181 62.9161 179.88 62.9161 178.44V157.08H53.5561V153.84H62.9161V142.92H66.5161V153.84H76.7161V157.08H66.5161V177.96C66.5161 179.16 67.1161 179.76 68.3161 179.76H75.1561V183H67.5961Z" fill="#0B9CCE"/>
<path d="M119.971 183.6C117.891 183.6 115.951 183.16 114.151 182.28C112.391 181.4 110.971 180.08 109.891 178.32C108.851 176.52 108.331 174.28 108.331 171.6V153.84H111.931V171.36C111.931 174.52 112.731 176.82 114.331 178.26C115.931 179.66 118.071 180.36 120.751 180.36C123.751 180.36 126.251 179.38 128.251 177.42C130.251 175.42 131.251 172.42 131.251 168.42V153.84H134.851V183H131.371V177.6H130.651C129.931 179.16 128.751 180.56 127.111 181.8C125.471 183 123.091 183.6 119.971 183.6Z" fill="#0B9CCE"/>
<path d="M182.031 183.84C179.431 183.84 177.071 183.24 174.951 182.04C172.831 180.8 171.131 179.06 169.851 176.82C168.611 174.54 167.991 171.86 167.991 168.78V168.06C167.991 164.98 168.611 162.32 169.851 160.08C171.091 157.8 172.771 156.06 174.891 154.86C177.051 153.62 179.431 153 182.031 153C184.191 153 186.011 153.3 187.491 153.9C188.971 154.46 190.171 155.2 191.091 156.12C192.051 157 192.791 157.94 193.311 158.94H194.031V141H197.631V183H194.151V177.66H193.431C192.591 179.26 191.271 180.7 189.471 181.98C187.711 183.22 185.231 183.84 182.031 183.84ZM182.871 180.6C186.191 180.6 188.871 179.54 190.911 177.42C192.991 175.3 194.031 172.38 194.031 168.66V168.18C194.031 164.46 192.991 161.54 190.911 159.42C188.871 157.3 186.191 156.24 182.871 156.24C179.591 156.24 176.911 157.3 174.831 159.42C172.751 161.54 171.711 164.46 171.711 168.18V168.66C171.711 172.38 172.751 175.3 174.831 177.42C176.911 179.54 179.591 180.6 182.871 180.6Z" fill="#0B9CCE"/>
<path d="M232.22 183V153.84H235.82V183H232.22ZM234.02 148.8C233.14 148.8 232.4 148.5 231.8 147.9C231.2 147.3 230.9 146.56 230.9 145.68C230.9 144.76 231.2 144.02 231.8 143.46C232.4 142.86 233.14 142.56 234.02 142.56C234.94 142.56 235.68 142.86 236.24 143.46C236.84 144.02 237.14 144.76 237.14 145.68C237.14 146.56 236.84 147.3 236.24 147.9C235.68 148.5 234.94 148.8 234.02 148.8Z" fill="#0B9CCE"/>
<path d="M283.719 183.84C280.759 183.84 278.159 183.22 275.919 181.98C273.719 180.7 271.999 178.94 270.759 176.7C269.559 174.42 268.959 171.78 268.959 168.78V168.06C268.959 165.06 269.559 162.44 270.759 160.2C271.999 157.92 273.719 156.16 275.919 154.92C278.159 153.64 280.759 153 283.719 153C286.679 153 289.259 153.64 291.459 154.92C293.699 156.16 295.419 157.92 296.619 160.2C297.859 162.44 298.479 165.06 298.479 168.06V168.78C298.479 171.78 297.859 174.42 296.619 176.7C295.419 178.94 293.699 180.7 291.459 181.98C289.259 183.22 286.679 183.84 283.719 183.84ZM283.719 180.6C287.159 180.6 289.879 179.52 291.879 177.36C293.879 175.16 294.879 172.26 294.879 168.66V168.18C294.879 164.58 293.879 161.7 291.879 159.54C289.879 157.34 287.159 156.24 283.719 156.24C280.319 156.24 277.599 157.34 275.559 159.54C273.559 161.7 272.559 164.58 272.559 168.18V168.66C272.559 172.26 273.559 175.16 275.559 177.36C277.599 179.52 280.319 180.6 283.719 180.6Z" fill="#0B9CCE"/>
<defs>
<linearGradient id="paint0_linear_79_45" x1="39.0989" y1="103.257" x2="296.087" y2="-49.142" gradientUnits="userSpaceOnUse">
<stop stop-color="#15DB98"/>
<stop offset="1" stop-color="#1959E5"/>
</linearGradient>
<linearGradient id="paint1_linear_79_45" x1="39.0989" y1="103.257" x2="296.087" y2="-49.142" gradientUnits="userSpaceOnUse">
<stop stop-color="#15DB98"/>
<stop offset="1" stop-color="#1959E5"/>
</linearGradient>
<linearGradient id="paint2_linear_79_45" x1="39.0989" y1="103.257" x2="296.087" y2="-49.142" gradientUnits="userSpaceOnUse">
<stop stop-color="#15DB98"/>
<stop offset="1" stop-color="#1959E5"/>
</linearGradient>
<linearGradient id="paint3_linear_79_45" x1="39.0989" y1="103.257" x2="296.087" y2="-49.142" gradientUnits="userSpaceOnUse">
<stop stop-color="#15DB98"/>
<stop offset="1" stop-color="#1959E5"/>
</linearGradient>
</defs>
</svg>
